<svg version="1.1" id="Layer_1" xmlns="http://www.w3.org/2000/svg" xmlns:xlink="http://www.w3.org/1999/xlink" x="0px" y="0px"
	 width="100%" viewBox="0 0 314 314" enable-background="new 0 0 314 314" xml:space="preserve">
<rect x="0" y="0" width="314" height="314" rx="56" fill="#F3EFE4"/>
<path fill="#33613C" opacity="1.000000" stroke="none" 
	d="
M224.347427,83.015427 
	C223.526459,83.663307 222.705490,84.311188 221.263138,85.051880 
	C220.465317,85.677353 219.667496,86.302834 218.956955,86.936821 
	C218.956955,86.936821 218.965454,86.849525 218.238373,87.010078 
	C210.125916,90.385262 202.176620,94.512138 192.885773,91.873375 
	C189.288681,90.851738 185.625320,90.063545 181.367981,89.067154 
	C180.948807,89.022057 180.529633,88.976967 179.521332,88.343002 
	C170.357666,87.638329 161.194000,86.933655 151.268539,86.410378 
	C149.180878,86.670540 147.093216,86.930695 144.419434,87.142097 
	C143.924988,87.401596 143.430527,87.661095 142.291382,87.994514 
	C141.863388,88.055008 141.435394,88.115494 140.153580,88.072243 
	C137.237152,88.510345 134.252182,88.688011 131.416840,89.434219 
	C122.012527,91.909241 112.682770,94.690941 103.142525,89.943390 
	C100.207558,88.482841 97.144485,87.279739 93.792656,85.376839 
	C91.540359,83.877518 89.288055,82.378197 86.994873,80.971703 
	C86.994873,80.971703 87.087708,81.012581 86.877922,80.563766 
	C86.678093,80.259094 86.396118,80.112648 85.617882,80.013016 
	C85.617882,80.013016 85.191444,79.967537 84.824394,79.390686 
	C82.582939,77.203735 80.341484,75.016777 78.100021,72.829826 
	C77.524162,73.151924 76.948303,73.474022 76.372444,73.796120 
	C77.225014,78.895599 78.077583,83.995079 78.972061,89.721375 
	C79.024658,90.136414 79.077255,90.551453 79.133453,91.669685 
	C79.756058,93.140900 80.378662,94.612106 81.054100,96.795654 
	C81.146713,97.109589 81.153625,97.493500 81.344460,97.727234 
	C86.205566,103.680916 91.184174,109.542862 95.885521,115.619469 
	C96.906830,116.939529 96.946266,119.019257 97.437935,120.749084 
	C95.969681,120.669678 94.435738,120.836945 93.044945,120.466621 
	C87.996674,119.122444 82.996384,117.598106 77.288742,115.763962 
	C73.195839,115.227257 69.102943,114.690559 64.261215,114.051666 
	C63.508041,114.085556 62.754871,114.119453 61.099117,114.060585 
	C56.040165,115.016640 50.981213,115.972687 45.977631,116.949638 
	C45.977631,116.949638 45.966042,116.891602 45.234482,116.995117 
	C42.786896,118.318611 40.339310,119.642105 37.967972,120.967087 
	C37.967972,120.967087 37.969437,120.890831 37.381905,121.177544 
	C36.217617,122.101784 35.053333,123.026024 33.953190,123.959190 
	C33.953190,123.959190 33.949497,123.894539 33.418316,124.305748 
	C32.655388,125.878937 31.892464,127.452126 31.021158,129.614334 
	C30.992229,130.012543 30.963299,130.410751 30.540411,131.080154 
	C30.460905,131.217758 30.280497,131.424408 30.319269,131.481079 
	C30.491478,131.732712 30.726509,131.941360 31.023943,132.581345 
	C31.023943,132.581345 31.142927,132.988739 31.060959,133.733704 
	C33.369469,140.147095 36.924736,145.595352 43.298904,149.690598 
	C45.187595,150.827637 47.076283,151.964676 48.975346,153.040131 
	C48.975346,153.040131 48.913349,153.047852 49.372429,153.599991 
	C55.399158,155.068314 61.438614,157.764099 67.449471,157.701767 
	C75.393967,157.619385 83.336555,155.485291 91.235870,153.998810 
	C93.755638,153.524643 95.251770,152.883362 96.118057,156.456787 
	C97.970490,164.098053 100.587296,171.554031 103.072548,179.802200 
	C106.102119,186.871902 109.131699,193.941589 112.070320,201.825272 
	C114.660645,211.606766 114.574028,221.297043 112.240547,231.208984 
	C111.384338,234.845901 112.787819,239.014786 113.302155,243.607346 
	C117.023140,249.381882 120.988052,254.891708 128.011444,257.027802 
	C128.011444,257.027802 127.914383,256.988617 128.131119,257.420654 
	C128.327347,257.715637 128.602539,257.859161 129.395508,257.973206 
	C129.395508,257.973206 129.847137,258.032288 130.242691,258.483032 
	C130.812714,258.609192 131.382721,258.735352 132.429871,258.968994 
	C132.429871,258.968994 132.915588,259.026154 133.388443,259.534576 
	C134.919327,260.032928 136.450195,260.531281 138.407059,261.563385 
	C140.262955,262.416504 142.118851,263.269623 143.989410,264.041534 
	C143.989410,264.041534 143.908173,264.026886 144.221527,264.593140 
	C145.151276,265.096741 146.081024,265.600372 146.977463,266.022095 
	C146.977463,266.022095 146.895630,266.055481 147.342468,266.616730 
	C149.902924,267.361664 152.463379,268.106567 155.687042,268.943848 
	C156.131622,268.916290 156.576202,268.888702 157.832901,268.953247 
	C159.633942,268.650421 161.434982,268.347626 163.611084,267.995422 
	C163.611084,267.995422 163.970367,267.876984 164.677963,267.894836 
	C166.867081,266.379456 169.056198,264.864075 171.346451,263.495300 
	C171.346451,263.495300 171.493118,263.394257 172.115250,263.226654 
	C173.435135,262.523132 174.755020,261.819611 176.705490,261.052155 
	C177.123871,260.995941 177.542267,260.939697 178.491791,260.804382 
	C178.731552,260.545288 178.971313,260.286194 179.605194,259.973389 
	C179.605194,259.973389 179.986023,259.858521 180.564865,259.872101 
	C181.063858,259.610901 181.562866,259.349701 182.715988,259.039917 
	C183.149307,258.984772 183.582642,258.929596 184.524048,258.774078 
	C184.756775,258.523010 184.989487,258.271973 185.595184,257.981689 
	C185.595184,257.981689 185.954971,257.875854 186.633728,257.712982 
	C191.811874,254.933090 197.175430,252.357117 199.224487,246.018021 
	C199.224487,246.018021 199.035507,246.083038 199.592560,245.990204 
	C199.771378,245.662369 199.950211,245.334534 200.690201,244.477936 
	C201.123428,242.408798 202.014725,240.316132 201.909805,238.274658 
	C201.478149,229.876450 200.743698,221.493790 200.658127,212.524261 
	C201.142059,209.354065 201.625992,206.183868 202.026413,203.010300 
	C202.026413,203.010300 202.023056,203.093811 202.496658,202.738113 
	C202.614822,202.175369 202.732986,201.612610 202.963379,200.590408 
	C202.963379,200.590408 203.035614,200.123001 203.589310,199.663467 
	C204.477463,197.551773 205.493011,195.483643 206.232437,193.321075 
	C210.138763,181.896423 213.975601,170.447983 217.942795,158.275421 
	C217.993195,157.537186 218.043594,156.798935 218.550034,155.698944 
	C218.638504,155.137894 218.726959,154.576828 219.121552,153.534744 
	C219.416168,153.298447 219.710800,153.062149 220.749573,153.008316 
	C223.251007,153.864197 225.709778,154.884781 228.261734,155.545563 
	C236.433762,157.661469 244.654144,159.415390 253.830978,157.038940 
	C254.548325,156.979568 255.265656,156.920212 256.637360,156.890198 
	C257.423309,156.542145 258.209259,156.194077 259.736481,155.875320 
	C268.172943,153.984680 274.239166,148.398880 279.134125,141.936661 
	C282.263214,137.805710 286.753967,132.902161 281.952057,126.396858 
	C281.952057,126.396858 281.789734,126.006325 281.561890,125.398117 
	C279.720642,123.890503 277.879364,122.382881 276.005585,120.964294 
	C276.005585,120.964294 276.094635,120.996773 275.823151,120.481667 
	C275.214508,120.035370 274.605835,119.589081 273.597504,119.018097 
	C273.597504,119.018097 273.183533,118.955452 272.711182,118.397873 
	C262.875732,113.028671 252.210007,113.461334 241.627350,114.410507 
	C237.654877,114.766808 233.824463,116.706749 229.168289,117.998352 
	C226.683960,118.877686 224.233154,119.875786 221.702240,120.589996 
	C220.277405,120.992073 218.720428,120.925888 217.222977,121.070663 
	C217.174850,119.406204 217.126724,117.741737 217.682404,115.970467 
	C218.183838,115.655472 218.685272,115.340485 219.711182,114.748032 
	C220.466385,114.112068 221.221588,113.476105 222.563446,112.658089 
	C223.408905,111.779472 224.254349,110.900856 225.022186,110.027946 
	C225.022186,110.027946 225.027924,110.105576 225.609100,109.793083 
	C226.134720,108.872574 226.660339,107.952057 227.561996,106.860107 
	C227.797806,106.693321 227.951019,106.469887 228.431686,105.912170 
	C228.721100,105.698753 228.862946,105.412285 229.110306,104.563919 
	C229.415359,104.108688 229.720398,103.653458 230.446442,102.916031 
	C230.590546,102.622047 230.734634,102.328064 231.198242,101.437683 
	C231.809555,100.013138 232.420868,98.588593 233.592056,96.680801 
	C234.843201,91.932442 236.375031,87.233536 237.224030,82.414337 
	C237.632721,80.094559 236.753693,77.547913 236.457779,75.104004 
	C234.331757,76.251816 232.203751,77.395973 230.084656,78.556435 
	C229.956741,78.626488 229.899948,78.826416 229.338440,79.212135 
	C228.880127,79.745178 228.421814,80.278221 227.334763,80.977562 
	C226.518509,81.641594 225.702255,82.305618 224.986404,82.971664 
	C224.986404,82.971664 224.988388,82.871262 224.347427,83.015427 
z"/>
<path fill="#33623C" opacity="1.000000" stroke="none" 
	d="
M85.191444,79.967537 
	C85.191444,79.967537 85.617882,80.013016 85.997742,80.220604 
	C86.613983,80.623390 86.850685,80.818184 87.087708,81.012581 
	C87.087708,81.012581 86.994873,80.971703 87.109406,81.242844 
	C88.148773,82.677139 89.073624,83.840294 90.225098,85.252991 
	C102.006645,91.832932 113.385742,98.893326 127.396805,92.386780 
	C129.448914,91.433807 131.988785,91.591789 134.204819,90.914558 
	C136.533798,90.202812 138.744827,89.105057 141.007401,88.175987 
	C141.435394,88.115494 141.863388,88.055008 142.806015,87.976654 
	C143.882278,87.702805 144.443909,87.446823 145.005554,87.190842 
	C147.093216,86.930695 149.180878,86.670540 151.934387,86.540573 
	C160.555237,87.903961 168.499878,89.214203 176.476898,90.283051 
	C177.607437,90.434532 178.895370,89.411369 180.110458,88.931877 
	C180.529633,88.976967 180.948807,89.022057 181.855103,89.391693 
	C186.746185,91.318588 191.053955,93.858627 195.574738,94.322411 
	C204.209564,95.208237 212.648422,93.943237 218.965454,86.849525 
	C218.965454,86.849525 218.956955,86.936821 219.252151,86.887009 
	C220.703979,86.230423 221.860626,85.623657 223.244659,84.833389 
	C223.977509,84.057014 224.482956,83.464142 224.988388,82.871262 
	C224.988388,82.871262 224.986404,82.971664 225.238495,82.859894 
	C226.314896,82.102509 227.139206,81.456886 227.963516,80.811264 
	C228.421814,80.278221 228.880127,79.745178 229.909927,79.036934 
	C232.020370,78.663826 233.559311,78.465919 235.963776,78.156715 
	C234.895996,85.079758 233.964096,91.121902 233.032181,97.164047 
	C232.420868,98.588593 231.809555,100.013138 230.892731,101.927467 
	C230.401077,102.678383 230.213821,102.938705 230.025452,103.198227 
	C229.720398,103.653458 229.415359,104.108688 228.842529,104.996391 
	C228.393738,105.684959 228.209351,105.938606 228.021606,106.189812 
	C227.951019,106.469887 227.797806,106.693321 227.126465,107.148071 
	C226.136581,108.325882 225.582260,109.215729 225.027924,110.105576 
	C225.027924,110.105576 225.022186,110.027946 224.763428,110.133133 
	C223.662048,111.105591 222.819427,111.972862 221.976791,112.840141 
	C221.221588,113.476105 220.466385,114.112068 219.242920,114.921188 
	C218.209305,115.421997 217.643951,115.749634 217.078613,116.077278 
	C217.126724,117.741737 217.174850,119.406204 217.222992,121.070663 
	C218.720428,120.925888 220.277405,120.992073 221.702240,120.589996 
	C224.233154,119.875786 226.683960,118.877686 229.890457,118.085220 
	C232.396072,118.107765 234.194443,118.167694 235.960098,117.955353 
	C240.860703,117.366035 245.781479,115.943871 250.632233,116.171768 
	C258.176270,116.526184 265.669037,117.972137 273.183533,118.955452 
	C273.183533,118.955452 273.597504,119.018097 273.981384,119.293152 
	C274.941711,120.044395 275.518188,120.520584 276.094635,120.996765 
	C276.094635,120.996773 276.005585,120.964294 276.145569,121.240326 
	C278.120300,123.013008 279.955017,124.509666 281.789734,126.006325 
	C281.789734,126.006325 281.952057,126.396858 281.986877,127.040436 
	C281.526978,137.396790 275.196075,145.539047 266.994110,146.980789 
	C266.980103,146.968399 266.992737,147.008362 266.912048,147.351044 
	C264.219147,150.123199 261.606964,152.552673 258.709900,155.080490 
	C257.611023,155.739517 256.797028,156.300186 255.983002,156.860855 
	C255.265656,156.920212 254.548325,156.979568 253.163483,156.893799 
	C251.730164,156.459961 250.986755,156.029510 250.195068,155.904312 
	C241.336899,154.503418 232.479050,153.094070 223.598007,151.852280 
	C222.467957,151.694260 221.206177,152.478271 220.005432,152.825851 
	C219.710800,153.062149 219.416168,153.298447 218.833832,153.912689 
	C218.395401,154.880661 218.244705,155.470688 218.093994,156.060699 
	C218.043594,156.798935 217.993195,157.537186 217.644943,158.872650 
	C214.402115,167.022018 211.286163,174.513245 208.567322,182.145905 
	C206.465500,188.046402 204.861130,194.124084 203.035614,200.123001 
	C203.035614,200.123001 202.963379,200.590408 202.794922,201.071960 
	C202.425323,202.066940 202.224197,202.580383 202.023071,203.093811 
	C202.023056,203.093811 202.026413,203.010300 201.778961,203.221436 
	C198.276688,206.250702 198.864120,209.629272 200.120621,213.105423 
	C200.743698,221.493790 201.478149,229.876450 201.909805,238.274658 
	C202.014725,240.316132 201.123428,242.408798 200.222778,244.917297 
	C199.515396,245.598770 199.275452,245.840897 199.035507,246.083038 
	C199.035507,246.083038 199.224487,246.018021 198.935364,246.236053 
	C194.415833,250.261353 190.185394,254.068588 185.954956,257.875854 
	C185.954971,257.875854 185.595184,257.981689 185.205795,258.141235 
	C184.543930,258.484131 184.277115,258.675323 184.015961,258.874420 
	C183.582642,258.929596 183.149307,258.984772 182.194656,259.045959 
	C181.110886,259.320831 180.548462,259.589661 179.986023,259.858521 
	C179.986023,259.858521 179.605194,259.973389 179.194916,260.135193 
	C178.509964,260.492493 178.235306,260.687988 177.960632,260.883484 
	C177.542267,260.939697 177.123871,260.995941 176.184875,260.883972 
	C172.488724,258.828644 171.855789,260.901001 171.493118,263.394257 
	C171.493118,263.394257 171.346451,263.495300 170.926300,263.437805 
	C168.327545,264.879181 166.148956,266.378082 163.970367,267.876984 
	C163.970367,267.876984 163.611084,267.995422 163.020935,268.016235 
	C160.627457,268.311737 158.824127,268.586426 157.020782,268.861145 
	C156.576202,268.888702 156.131622,268.916290 155.117432,268.648804 
	C151.997086,267.587646 149.446350,266.821564 146.895630,266.055481 
	C146.895630,266.055481 146.977463,266.022095 146.781845,265.827454 
	C145.693542,265.097534 144.800858,264.562195 143.908173,264.026886 
	C143.908173,264.026886 143.989410,264.041534 143.858856,263.797577 
	C142.126541,262.706482 140.524780,261.859314 138.787033,260.808044 
	C136.739212,260.078003 134.827393,259.552094 132.915588,259.026154 
	C132.915588,259.026154 132.429871,258.968994 131.931274,258.803223 
	C130.904160,258.435730 130.375656,258.234009 129.847137,258.032288 
	C129.847137,258.032288 129.395508,257.973206 129.005035,257.765228 
	C128.380890,257.368042 128.147507,257.178497 127.914383,256.988617 
	C127.914383,256.988617 128.011444,257.027802 127.858734,256.757751 
	C123.137985,251.657150 118.569946,246.826630 114.064224,241.582886 
	C115.312302,229.499496 118.232521,217.851364 114.842285,206.113647 
	C114.320045,204.305573 113.073074,202.706848 112.161278,201.011292 
	C109.131699,193.941589 106.102119,186.871902 103.079468,179.122803 
	C102.925758,176.817596 102.964676,175.141357 102.568626,173.575089 
	C101.144577,167.943344 99.437637,162.381073 98.093964,156.731583 
	C96.544785,150.217987 95.209335,149.907715 88.645706,151.831589 
	C82.538513,153.621689 76.064690,154.830505 69.723007,154.970627 
	C62.803993,155.123489 55.851337,153.753830 48.913349,153.047852 
	C48.913349,153.047852 48.975346,153.040131 48.887840,152.750336 
	C48.269211,149.176178 45.898170,148.251205 42.877819,147.666107 
	C38.863770,142.576477 35.003353,137.782608 31.142929,132.988739 
	C31.142927,132.988739 31.023943,132.581345 30.983271,132.034241 
	C30.939856,131.261093 30.937113,131.035019 30.934368,130.808960 
	C30.963299,130.410751 30.992229,130.012543 31.355698,129.138214 
	C32.443325,127.072906 33.196411,125.483727 33.949497,123.894539 
	C33.949497,123.894539 33.953190,123.959190 34.264595,123.896133 
	C35.707146,122.852325 36.838291,121.871574 37.969437,120.890831 
	C37.969437,120.890831 37.967972,120.967087 38.314064,120.891556 
	C41.095451,119.507881 43.530746,118.199745 45.966042,116.891602 
	C45.966042,116.891602 45.977631,116.949638 46.271950,116.994553 
	C51.711411,116.077431 56.856556,115.115387 62.001698,114.153351 
	C62.754871,114.119453 63.508041,114.085556 64.908386,114.328125 
	C69.696365,115.116959 73.837173,115.629341 77.977989,116.141724 
	C82.996384,117.598106 87.996674,119.122444 93.044945,120.466621 
	C94.435738,120.836945 95.969681,120.669678 97.437935,120.749084 
	C96.946266,119.019257 96.906830,116.939529 95.885521,115.619469 
	C91.184174,109.542862 86.205566,103.680916 81.344460,97.727234 
	C81.153625,97.493500 81.146713,97.109589 81.003220,96.077499 
	C80.344841,93.895058 79.737350,92.430779 79.129852,90.966492 
	C79.077255,90.551453 79.024658,90.136414 79.046669,89.068047 
	C79.718513,79.673111 79.718513,79.673111 85.191444,79.967537 
z"/>
<path fill="#34603C" opacity="1.000000" stroke="none" 
	d="
M33.993443,10.155073 
	C35.403358,9.761002 36.803749,9.064831 38.224678,9.020026 
	C51.095890,8.614172 63.969128,8.165147 76.844841,8.037036 
	C92.564514,7.880628 108.287674,7.946004 124.008339,8.056267 
	C138.469833,8.157699 152.929855,8.590269 167.390823,8.606697 
	C179.281189,8.620206 191.172241,8.068377 203.062500,8.086439 
	C211.761047,8.099652 220.458099,8.836317 229.157104,8.865239 
	C235.858826,8.887521 242.564346,8.028743 249.264877,8.072095 
	C257.538788,8.125625 265.809296,8.707658 274.728973,9.301697 
	C278.296173,10.024522 281.215668,10.506976 284.135162,10.989429 
	C285.571655,11.600212 287.008148,12.210996 288.873016,13.119085 
	C289.474243,13.599889 289.651733,13.778773 289.833862,13.953049 
	C291.997803,15.627982 294.161743,17.302914 296.698212,19.456707 
	C298.038513,24.778057 300.168274,28.802074 304.872833,31.012545 
	C304.872833,31.012545 304.967896,31.420959 305.129211,31.819212 
	C305.470734,32.470516 305.657257,32.718822 305.850098,32.962379 
	C305.850098,32.962379 305.971832,33.410061 305.958191,34.028893 
	C306.400665,42.272682 306.856812,49.897640 307.312927,57.522602 
	C307.312927,57.522602 307.146393,57.638515 307.112396,57.812313 
	C307.060455,58.501831 307.042511,59.017548 307.024597,59.533264 
	C307.323059,61.114483 307.621552,62.695705 307.707947,64.794876 
	C307.598877,66.540726 307.701843,67.768631 307.804840,68.996536 
	C307.867615,81.904518 307.964905,94.812447 307.985107,107.720497 
	C308.015930,127.440758 307.896210,147.161804 308.035553,166.881134 
	C308.103271,176.464432 308.784363,186.042816 308.884399,195.626587 
	C309.049225,211.406525 309.020020,227.189209 308.970490,242.970398 
	C308.939636,252.804413 308.721008,262.637848 308.082794,273.009644 
	C306.733734,278.087952 305.888580,282.628113 305.043396,287.168304 
	C305.043396,287.168304 304.980621,287.615509 304.774506,288.003082 
	C304.375824,288.621368 304.183014,288.851837 303.989960,289.082092 
	C303.989960,289.082092 303.963470,288.986847 303.873505,289.237427 
	C303.527618,290.025696 303.271729,290.563416 303.015808,291.101105 
	C303.015808,291.101105 303.018524,290.988464 302.832214,291.201813 
	C302.110504,292.321472 301.575134,293.227814 301.039764,294.134155 
	C301.039764,294.134155 301.017548,294.012726 300.834900,294.212585 
	C300.115265,295.316956 299.578308,296.221466 299.041351,297.125977 
	C299.041351,297.125977 298.986267,297.037170 298.802673,297.205383 
	C298.089264,297.972504 297.559479,298.571411 297.029663,299.170288 
	C296.961121,299.453888 296.808960,299.681671 296.042297,300.027863 
	C294.014587,301.516876 292.517731,302.831665 291.020874,304.146423 
	C291.020874,304.146423 290.970398,304.034851 290.853455,304.153137 
	C290.501923,304.456970 290.272705,304.648987 290.048950,304.847504 
	C289.586365,305.157990 289.123810,305.468506 288.216125,306.025391 
	C287.514465,306.443329 287.263092,306.622070 287.016876,306.808105 
	C285.942169,307.202362 284.867493,307.596619 283.132416,307.931793 
	C277.759918,308.115997 273.041870,308.290741 268.343933,308.697876 
	C267.813690,308.743805 267.397034,310.100769 266.927734,310.849823 
	C259.674377,310.594543 252.419327,310.091278 245.168030,310.140503 
	C233.485474,310.219849 221.804886,310.910553 210.124451,310.885071 
	C198.057709,310.858765 185.992142,310.286011 173.268158,309.713989 
	C171.410400,309.594269 170.210556,309.712860 169.010727,309.831451 
	C168.563110,309.864838 168.115494,309.898193 167.214630,309.665588 
	C163.624329,309.243805 160.488297,308.989563 157.349945,308.956482 
	C153.157059,308.912231 150.407135,307.294983 149.965820,302.817139 
	C150.418839,302.278412 150.871841,301.739685 151.811218,300.908813 
	C152.867599,300.049988 153.437592,299.483307 154.007599,298.916626 
	C154.007599,298.916626 153.998901,299.001678 154.221466,298.871338 
	C154.958435,298.461700 155.472824,298.182434 155.987213,297.903168 
	C155.987213,297.903168 155.978836,297.991241 156.088303,297.769928 
	C156.464706,297.089142 156.731644,296.629669 156.998581,296.170197 
	C162.605438,291.866699 169.010559,289.972900 176.007965,289.971008 
	C205.806778,289.962921 235.605606,289.980835 265.404419,289.977173 
	C267.233307,289.976959 269.090057,290.057770 270.886566,289.787018 
	C282.506287,288.036011 287.288025,282.247253 287.150635,270.258209 
	C286.736694,234.138763 287.033142,198.011154 287.213684,161.158401 
	C287.573578,159.905075 287.772339,159.380081 287.971130,158.855103 
	C287.971130,158.855103 288.007385,158.413467 288.175659,157.943665 
	C288.557068,156.954834 288.770203,156.435806 288.983337,155.916763 
	C288.983337,155.916763 288.984192,155.983521 289.243896,155.868164 
	C290.317993,155.126877 291.132385,154.500916 291.946777,153.874954 
	C291.946777,153.874954 291.959290,153.941818 292.110107,153.778198 
	C292.502106,153.385666 292.729706,153.143997 292.943756,152.889587 
	C292.943756,152.889587 292.886322,152.950882 293.122803,152.749329 
	C294.283783,150.708160 295.208282,148.868530 296.132751,147.028885 
	C296.389832,146.510681 296.646942,145.992477 297.180115,145.044128 
	C297.641327,144.385529 297.824799,144.155731 298.006592,143.924606 
	C298.006592,143.924606 297.984070,144.015381 298.229004,143.800079 
	C303.072418,137.806656 303.268097,126.481659 298.863922,121.015137 
	C298.863922,121.015137 298.974121,120.978241 298.852478,120.861053 
	C298.548706,120.511688 298.361725,120.283440 298.169952,120.059120 
	C298.123108,119.892143 298.076294,119.725166 298.027130,119.024696 
	C296.960663,117.005966 295.896545,115.520729 294.832428,114.035492 
	C294.549988,113.949188 294.322388,113.786263 293.974854,113.004517 
	C291.596375,109.311737 289.392639,106.161156 287.188904,103.010574 
	C287.123993,84.693451 286.584473,66.361580 287.153076,48.064140 
	C287.564850,34.812691 280.082245,29.551971 269.225128,29.163681 
	C257.300598,28.737219 245.333237,29.668304 233.382889,29.743910 
	C226.346115,29.788427 219.304855,29.099997 212.267822,29.138956 
	C203.730637,29.186216 195.197601,29.785772 186.659409,29.904198 
	C176.137344,30.050138 165.610092,30.064655 155.088318,29.912533 
	C146.998611,29.795574 138.913666,29.083448 130.827042,29.091436 
	C121.975014,29.100182 113.125481,29.757957 104.271156,29.897840 
	C96.701118,30.017433 89.125511,29.725155 81.552933,29.755873 
	C67.514656,29.812819 53.464336,29.663416 39.444370,30.228571 
	C33.066685,30.485659 28.037195,37.407799 28.014221,44.457333 
	C27.954519,62.775604 27.987570,81.094170 27.952848,99.412544 
	C27.949081,101.400490 27.744116,103.388054 27.019505,105.783562 
	C22.716370,107.024521 21.486441,109.760345 21.053806,113.112762 
	C21.053806,113.112762 20.995268,113.035492 20.856871,113.202850 
	C20.487164,113.636208 20.255856,113.902214 20.024548,114.168228 
	C20.024549,114.168228 19.960789,114.616768 19.685902,115.008606 
	C19.116711,115.623070 18.822411,115.845695 18.528109,116.068329 
	C18.763191,116.248894 18.786760,116.453789 18.127127,116.953171 
	C14.730527,119.865738 11.987398,122.574379 14.076845,127.043983 
	C14.037601,127.215919 13.998358,127.387848 13.709036,128.130310 
	C11.759521,133.106277 10.654258,137.429871 15.150426,140.981979 
	C15.150426,140.981979 15.048038,140.985352 15.117214,141.256500 
	C15.489126,142.348221 15.791861,143.168762 16.094595,143.989319 
	C16.094595,143.989319 16.029640,143.982880 16.207100,144.138046 
	C16.617882,144.534821 16.851202,144.776413 17.084518,145.018021 
	C17.084518,145.018021 17.001938,144.975723 17.076674,145.276062 
	C17.833256,146.704346 18.515102,147.832275 19.196951,148.960220 
	C19.477608,149.046066 19.700563,149.210266 20.071461,149.920395 
	C20.549099,150.921646 20.821100,151.455307 21.093105,151.988968 
	C21.093105,151.988968 21.017353,151.960068 21.233013,152.140717 
	C22.033173,152.867188 22.617672,153.413010 23.202175,153.958817 
	C23.635654,154.262604 24.069136,154.566406 24.796812,155.320816 
	C25.746805,156.847733 26.402603,157.924042 27.058399,159.000336 
	C27.058397,159.000336 26.991293,159.006088 27.114140,159.142471 
	C27.396975,159.506775 27.564987,159.728622 27.741020,159.944382 
	C27.814230,189.184967 27.895914,218.425552 27.955648,247.666168 
	C27.974319,256.805389 27.933764,265.944763 27.703184,275.776947 
	C26.204672,280.853149 27.646038,283.745270 32.139271,284.965912 
	C32.415249,285.059967 32.641769,285.222839 33.092308,285.842316 
	C33.601299,286.494751 33.836823,286.759338 34.072342,287.023926 
	C34.072342,287.023926 33.967266,286.957367 34.132507,287.175171 
	C35.558933,287.897339 36.820122,288.401703 38.081314,288.906067 
	C65.842697,289.263275 93.604614,289.587646 121.364426,290.041351 
	C123.530548,290.076752 125.681908,291.016174 127.840134,291.535400 
	C127.102386,293.568451 126.364639,295.601501 125.103409,298.037811 
	C123.760368,299.471130 122.401276,300.412140 122.214088,301.546509 
	C121.375443,306.628693 117.729523,307.825684 113.546654,307.927856 
	C105.752975,308.118195 97.940239,308.271332 90.155663,307.949890 
	C68.037659,307.036591 45.637646,310.810852 23.861618,304.076965 
	C23.861618,304.076965 23.930622,304.086182 23.862057,303.783997 
	C23.251869,300.788605 21.807453,299.380920 18.905308,300.048950 
	C12.456726,292.839355 6.685372,285.399780 6.908155,274.903137 
	C7.122135,264.821350 6.943655,254.729843 6.856313,244.643326 
	C6.717237,228.582413 6.511360,212.522095 6.332418,196.461517 
	C6.214514,185.879333 5.899506,175.294891 6.023288,164.715561 
	C6.186460,150.769684 6.693343,136.827820 7.109146,122.300293 
	C7.168868,121.487122 7.165187,121.257973 7.154796,121.028900 
	C7.126552,120.578537 7.098308,120.128166 7.342684,119.054825 
	C9.916159,111.567955 9.519414,104.763000 7.168987,98.000725 
	C7.131431,94.303932 7.093875,90.607132 7.227595,86.326477 
	C7.323424,85.163528 7.247976,84.584450 7.172528,84.005371 
	C7.139500,83.558968 7.106472,83.112564 7.345737,82.044235 
	C9.783648,74.570114 9.922879,67.765419 7.139997,61.029213 
	C7.108569,60.572716 7.077141,60.116222 7.086637,59.198608 
	C7.137682,58.499592 7.137845,58.261627 7.128050,58.023598 
	C7.098129,54.250069 7.068208,50.476536 7.273274,46.024940 
	C7.656175,42.822392 7.804089,40.297901 7.952003,37.773415 
	C7.967950,37.385857 7.983898,36.998302 8.306234,36.106842 
	C9.726274,32.702633 10.839925,29.802334 11.953575,26.902035 
	C11.953576,26.902035 11.975850,26.987108 12.166861,26.781494 
	C12.894051,25.681742 13.430228,24.787603 13.966406,23.893465 
	C13.966407,23.893465 13.972323,23.991150 14.164068,23.782761 
	C14.889362,22.674372 15.422911,21.774370 15.956459,20.874369 
	C15.956458,20.874369 15.959530,20.959583 16.224380,20.842859 
	C17.312052,19.775089 18.134871,18.824041 18.957689,17.872995 
	C18.957689,17.872995 18.945429,17.946859 19.294586,17.908554 
	C24.426975,15.298524 29.210209,12.726798 33.993443,10.155073 
z"/>
<path fill="#3B5D40" opacity="1.000000" stroke="none" 
	d="
M24.046215,304.378357 
	C45.637646,310.810852 68.037659,307.036591 90.155663,307.949890 
	C97.940239,308.271332 105.752975,308.118195 113.546654,307.927856 
	C117.729523,307.825684 121.375443,306.628693 122.214088,301.546509 
	C122.401276,300.412140 123.760368,299.471130 124.849342,298.244385 
	C124.218498,301.373444 123.521652,304.776581 122.302567,307.981079 
	C121.900818,309.037109 120.158195,310.243591 119.013535,310.259064 
	C95.607346,310.575653 72.195694,311.020874 48.792671,310.761139 
	C40.335373,310.667297 31.489687,310.412689 24.046215,304.378357 
z"/>
<path fill="#3C5F41" opacity="1.000000" stroke="none" 
	d="
M49.142891,153.323914 
	C55.851337,153.753830 62.803993,155.123489 69.723007,154.970627 
	C76.064690,154.830505 82.538513,153.621689 88.645706,151.831589 
	C95.209335,149.907715 96.544785,150.217987 98.093964,156.731583 
	C99.437637,162.381073 101.144577,167.943344 102.568626,173.575089 
	C102.964676,175.141357 102.925758,176.817596 102.988701,178.764648 
	C100.587296,171.554031 97.970490,164.098053 96.118057,156.456787 
	C95.251770,152.883362 93.755638,153.524643 91.235870,153.998810 
	C83.336555,155.485291 75.393967,157.619385 67.449471,157.701767 
	C61.438614,157.764099 55.399158,155.068314 49.142891,153.323914 
z"/>
<path fill="#3A5D42" opacity="1.000000" stroke="none" 
	d="
M140.580490,88.124115 
	C138.744827,89.105057 136.533798,90.202812 134.204819,90.914558 
	C131.988785,91.591789 129.448914,91.433807 127.396805,92.386780 
	C113.385742,98.893326 102.006645,91.832932 90.569519,85.335388 
	C91.838226,85.431740 92.989143,85.695251 94.140068,85.958755 
	C97.144485,87.279739 100.207558,88.482841 103.142525,89.943390 
	C112.682770,94.690941 122.012527,91.909241 131.416840,89.434219 
	C134.252182,88.688011 137.237152,88.510345 140.580490,88.124115 
z"/>
<path fill="#3C6142" opacity="1.000000" stroke="none" 
	d="
M112.115799,201.418274 
	C113.073074,202.706848 114.320045,204.305573 114.842285,206.113647 
	C118.232521,217.851364 115.312302,229.499496 113.925385,241.741882 
	C113.538933,242.525421 113.351036,242.734390 113.160522,242.941010 
	C112.787819,239.014786 111.384338,234.845901 112.240547,231.208984 
	C114.574028,221.297043 114.660645,211.606766 112.115799,201.418274 
z"/>
<path fill="#3C5D42" opacity="1.000000" stroke="none" 
	d="
M258.994781,154.982132 
	C261.606964,152.552673 264.219147,150.123199 266.915588,147.346893 
	C266.999878,147.000046 267.008118,146.993179 267.008118,146.993179 
	C275.196075,145.539047 281.526978,137.396790 282.032288,127.246979 
	C286.753967,132.902161 282.263214,137.805710 279.134125,141.936661 
	C274.239166,148.398880 268.172943,153.984680 259.365967,155.644699 
	C258.995422,155.414078 258.994781,154.982132 258.994781,154.982132 
z"/>
<path fill="#3C5F43" opacity="1.000000" stroke="none" 
	d="
M203.312469,199.893234 
	C204.861130,194.124084 206.465500,188.046402 208.567322,182.145905 
	C211.286163,174.513245 214.402115,167.022018 217.591797,159.238846 
	C213.975601,170.447983 210.138763,181.896423 206.232437,193.321075 
	C205.493011,195.483643 204.477463,197.551773 203.312469,199.893234 
z"/>
<path fill="#3C6042" opacity="1.000000" stroke="none" 
	d="
M272.947357,118.676666 
	C265.669037,117.972137 258.176270,116.526184 250.632233,116.171768 
	C245.781479,115.943871 240.860703,117.366035 235.960098,117.955353 
	C234.194443,118.167694 232.396072,118.107765 230.270950,118.048386 
	C233.824463,116.706749 237.654877,114.766808 241.627350,114.410507 
	C252.210007,113.461334 262.875732,113.028671 272.947357,118.676666 
z"/>
<path fill="#3A5D42" opacity="1.000000" stroke="none" 
	d="
M218.601913,86.929802 
	C212.648422,93.943237 204.209564,95.208237 195.574738,94.322411 
	C191.053955,93.858627 186.746185,91.318588 182.167175,89.442619 
	C185.625320,90.063545 189.288681,90.851738 192.885773,91.873375 
	C202.176620,94.512138 210.125916,90.385262 218.601913,86.929802 
z"/>
<path fill="#3D6042" opacity="1.000000" stroke="none" 
	d="
M220.377502,152.917084 
	C221.206177,152.478271 222.467957,151.694260 223.598007,151.852280 
	C232.479050,153.094070 241.336899,154.503418 250.195068,155.904312 
	C250.986755,156.029510 251.730164,156.459961 252.803833,156.913849 
	C244.654144,159.415390 236.433762,157.661469 228.261734,155.545563 
	C225.709778,154.884781 223.251007,153.864197 220.377502,152.917084 
z"/>
<path fill="#3A5D42" opacity="1.000000" stroke="none" 
	d="
M179.815887,88.637436 
	C178.895370,89.411369 177.607437,90.434532 176.476898,90.283051 
	C168.499878,89.214203 160.555237,87.903961 152.315292,86.449875 
	C161.194000,86.933655 170.357666,87.638329 179.815887,88.637436 
z"/>
<path fill="#406145" opacity="1.000000" stroke="none" 
	d="
M233.312119,96.922424 
	C233.964096,91.121902 234.895996,85.079758 235.963776,78.156715 
	C233.559311,78.465919 232.020370,78.663826 230.145737,78.913826 
	C229.899948,78.826416 229.956741,78.626488 230.084656,78.556435 
	C232.203751,77.395973 234.331757,76.251816 236.457779,75.104004 
	C236.753693,77.547913 237.632721,80.094559 237.224030,82.414337 
	C236.375031,87.233536 234.843201,91.932442 233.312119,96.922424 
z"/>
<path fill="#406248" opacity="1.000000" stroke="none" 
	d="
M85.007919,79.679108 
	C79.718513,79.673111 79.718513,79.673111 79.025711,88.754639 
	C78.077583,83.995079 77.225014,78.895599 76.372444,73.796120 
	C76.948303,73.474022 77.524162,73.151924 78.100021,72.829826 
	C80.341484,75.016777 82.582939,77.203735 85.007919,79.679108 
z"/>
<path fill="#3E6345" opacity="1.000000" stroke="none" 
	d="
M113.231339,243.274170 
	C113.351036,242.734390 113.538933,242.525421 113.863060,242.155090 
	C118.569946,246.826630 123.137985,251.657150 127.839111,256.806274 
	C120.988052,254.891708 117.023140,249.381882 113.231339,243.274170 
z"/>
<path fill="#3B5F41" opacity="1.000000" stroke="none" 
	d="
M307.523529,57.110943 
	C306.856812,49.897640 306.400665,42.272682 305.994568,34.257984 
	C306.607788,41.478592 307.170959,49.088940 307.523529,57.110943 
z"/>
<path fill="#3E6043" opacity="1.000000" stroke="none" 
	d="
M298.912201,121.443649 
	C303.268097,126.481659 303.072418,137.806656 298.183594,143.788834 
	C300.829559,136.743820 300.486450,129.336517 298.912201,121.443649 
z"/>
<path fill="#3E6145" opacity="1.000000" stroke="none" 
	d="
M31.101944,133.361221 
	C35.003353,137.782608 38.863770,142.576477 42.861122,147.954987 
	C42.988430,148.731979 42.978806,148.924332 42.969185,149.116684 
	C36.924736,145.595352 33.369469,140.147095 31.101944,133.361221 
z"/>
<path fill="#406145" opacity="1.000000" stroke="none" 
	d="
M186.294342,257.794434 
	C190.185394,254.068588 194.415833,250.261353 198.967896,246.330536 
	C197.175430,252.357117 191.811874,254.933090 186.294342,257.794434 
z"/>
<path fill="#3C6042" opacity="1.000000" stroke="none" 
	d="
M7.093866,61.494507 
	C9.922879,67.765419 9.783648,74.570114 7.387913,81.710403 
	C7.121108,75.318924 7.084422,68.639359 7.093866,61.494507 
z"/>
<path fill="#3C5F43" opacity="1.000000" stroke="none" 
	d="
M7.120639,98.467606 
	C9.519414,104.763000 9.916159,111.567955 7.386069,118.718491 
	C7.128653,112.314919 7.100472,105.624695 7.120639,98.467606 
z"/>
<path fill="#406146" opacity="1.000000" stroke="none" 
	d="
M149.692032,303.054138 
	C150.407135,307.294983 153.157059,308.912231 157.349945,308.956482 
	C160.488297,308.989563 163.624329,309.243805 166.879791,309.623962 
	C160.532974,309.848358 154.067749,309.848358 146.677643,309.848358 
	C147.735428,307.317474 148.576828,305.304291 149.692032,303.054138 
z"/>
<path fill="#3F5F44" opacity="1.000000" stroke="none" 
	d="
M33.610764,10.116035 
	C29.210209,12.726798 24.426975,15.298524 19.257654,17.902420 
	C23.657074,15.315395 28.442581,12.696197 33.610764,10.116035 
z"/>
<path fill="#405F45" opacity="1.000000" stroke="none" 
	d="
M267.354767,310.904388 
	C267.397034,310.100769 267.813690,308.743805 268.343933,308.697876 
	C273.041870,308.290741 277.759918,308.115997 282.792816,307.994476 
	C278.002991,309.063843 272.892395,310.011414 267.354767,310.904388 
z"/>
<path fill="#3D6044" opacity="1.000000" stroke="none" 
	d="
M61.550407,114.106964 
	C56.856556,115.115387 51.711411,116.077431 46.244263,116.984100 
	C50.981213,115.972687 56.040165,115.016640 61.550407,114.106964 
z"/>
<path fill="#3B5F41" opacity="1.000000" stroke="none" 
	d="
M304.888702,30.653214 
	C300.168274,28.802074 298.038513,24.778057 297.025726,19.572523 
	C299.622009,22.904278 302.263275,26.599079 304.888702,30.653214 
z"/>
<path fill="#3E6043" opacity="1.000000" stroke="none" 
	d="
M15.086989,140.564240 
	C10.654258,137.429871 11.759521,133.106277 13.640400,128.385773 
	C14.222413,132.095978 14.622983,136.121231 15.086989,140.564240 
z"/>
<path fill="#3D6044" opacity="1.000000" stroke="none" 
	d="
M77.633362,115.952843 
	C73.837173,115.629341 69.696365,115.116959 65.282791,114.379219 
	C69.102943,114.690559 73.195839,115.227257 77.633362,115.952843 
z"/>
<path fill="#3E6043" opacity="1.000000" stroke="none" 
	d="
M305.324158,286.912354 
	C305.888580,282.628113 306.733734,278.087952 307.829895,273.281250 
	C307.255554,277.561951 306.430237,282.109161 305.324158,286.912354 
z"/>
<path fill="#3B5F41" opacity="1.000000" stroke="none" 
	d="
M14.340233,126.798492 
	C11.987398,122.574379 14.730527,119.865738 17.975452,117.038589 
	C17.064854,120.086891 15.834237,123.319954 14.340233,126.798492 
z"/>
<path fill="#3E6043" opacity="1.000000" stroke="none" 
	d="
M287.142700,103.396423 
	C289.392639,106.161156 291.596375,109.311737 293.882629,112.812660 
	C291.168732,110.407219 286.510376,109.014748 287.142700,103.396423 
z"/>
<path fill="#3D6042" opacity="1.000000" stroke="none" 
	d="
M200.389374,212.814850 
	C198.864120,209.629272 198.276688,206.250702 201.820709,203.223114 
	C201.625992,206.183868 201.142059,209.354065 200.389374,212.814850 
z"/>
<path fill="#3C6042" opacity="1.000000" stroke="none" 
	d="
M21.341961,112.932037 
	C21.486441,109.760345 22.716370,107.024521 26.759140,106.114075 
	C25.284534,108.274986 23.457325,110.513153 21.341961,112.932037 
z"/>
<path fill="#3E6043" opacity="1.000000" stroke="none" 
	d="
M31.960264,284.666199 
	C27.646038,283.745270 26.204672,280.853149 27.652290,276.244385 
	C29.139441,278.801453 30.460348,281.583984 31.960264,284.666199 
z"/>
<path fill="#3C5F41" opacity="1.000000" stroke="none" 
	d="
M43.134045,149.403641 
	C42.978806,148.924332 42.988430,148.731979 43.014755,148.250763 
	C45.898170,148.251205 48.269211,149.176178 48.882652,152.781143 
	C47.076283,151.964676 45.187595,150.827637 43.134045,149.403641 
z"/>
<path fill="#406145" opacity="1.000000" stroke="none" 
	d="
M164.324158,267.885925 
	C166.148956,266.378082 168.327545,264.879181 170.875732,263.364502 
	C169.056198,264.864075 166.867081,266.379456 164.324158,267.885925 
z"/>
<path fill="#3E6145" opacity="1.000000" stroke="none" 
	d="
M45.600262,116.943359 
	C43.530746,118.199745 41.095451,119.507881 38.275940,120.890808 
	C40.339310,119.642105 42.786896,118.318611 45.600262,116.943359 
z"/>
<path fill="#406145" opacity="1.000000" stroke="none" 
	d="
M171.804184,263.310455 
	C171.855789,260.901001 172.488724,258.828644 175.869583,260.915894 
	C174.755020,261.819611 173.435135,262.523132 171.804184,263.310455 
z"/>
<path fill="#406145" opacity="1.000000" stroke="none" 
	d="
M283.846619,10.728505 
	C281.215668,10.506976 278.296173,10.024522 275.195923,9.352222 
	C277.862793,9.597445 280.710449,10.032513 283.846619,10.728505 
z"/>
<path fill="#406146" opacity="1.000000" stroke="none" 
	d="
M11.674694,27.118671 
	C10.839925,29.802334 9.726274,32.702633 8.351816,35.819473 
	C9.192611,33.135780 10.294212,30.235544 11.674694,27.118671 
z"/>
<path fill="#406145" opacity="1.000000" stroke="none" 
	d="
M147.119049,266.336121 
	C149.446350,266.821564 151.997086,267.587646 154.785828,268.602600 
	C152.463379,268.106567 149.902924,267.361664 147.119049,266.336121 
z"/>
<path fill="#3B5D40" opacity="1.000000" stroke="none" 
	d="
M19.073048,300.336029 
	C21.807453,299.380920 23.251869,300.788605 23.856327,303.818359 
	C22.359703,302.977600 20.800245,301.800354 19.073048,300.336029 
z"/>
<path fill="#406248" opacity="1.000000" stroke="none" 
	d="
M93.966362,85.667801 
	C92.989143,85.695251 91.838226,85.431740 90.342888,85.085846 
	C89.073624,83.840294 88.148773,82.677139 87.129845,81.196426 
	C89.288055,82.378197 91.540359,83.877518 93.966362,85.667801 
z"/>
<path fill="#3C5D42" opacity="1.000000" stroke="none" 
	d="
M281.675812,125.702225 
	C279.955017,124.509666 278.120300,123.013008 276.161865,121.195808 
	C277.879364,122.382881 279.720642,123.890503 281.675812,125.702225 
z"/>
<path fill="#3E6345" opacity="1.000000" stroke="none" 
	d="
M295.960052,147.322495 
	C295.208282,148.868530 294.283783,150.708160 293.092163,152.720612 
	C293.812469,151.134323 294.799896,149.375214 295.960052,147.322495 
z"/>
<path fill="#406146" opacity="1.000000" stroke="none" 
	d="
M7.651788,38.066017 
	C7.804089,40.297901 7.656175,42.822392 7.335982,45.636597 
	C7.226326,43.403748 7.288949,40.881184 7.651788,38.066017 
z"/>
<path fill="#3E6043" opacity="1.000000" stroke="none" 
	d="
M294.929626,114.356415 
	C295.896545,115.520729 296.960663,117.005966 297.971130,118.770676 
	C296.953918,117.592545 295.990387,116.134933 294.929626,114.356415 
z"/>
<path fill="#3E6345" opacity="1.000000" stroke="none" 
	d="
M133.152008,259.280365 
	C134.827393,259.552094 136.739212,260.078003 138.552063,260.811951 
	C138.453079,261.019989 137.981079,261.029633 137.981079,261.029633 
	C136.450195,260.531281 134.919327,260.032928 133.152008,259.280365 
z"/>
<path fill="#406145" opacity="1.000000" stroke="none" 
	d="
M138.194061,261.296509 
	C137.981079,261.029633 138.453079,261.019989 138.688049,261.016083 
	C140.524780,261.859314 142.126541,262.706482 143.851517,263.838196 
	C142.118851,263.269623 140.262955,262.416504 138.194061,261.296509 
z"/>
<path fill="#406248" opacity="1.000000" stroke="none" 
	d="
M291.355530,304.068909 
	C292.517731,302.831665 294.014587,301.516876 295.853760,300.117676 
	C294.694122,301.352661 293.192139,302.672028 291.355530,304.068909 
z"/>
<path fill="#3E6043" opacity="1.000000" stroke="none" 
	d="
M37.875809,288.646423 
	C36.820122,288.401703 35.558933,287.897339 34.165771,287.122620 
	C35.245972,287.363770 36.458141,287.875275 37.875809,288.646423 
z"/>
<path fill="#3E6145" opacity="1.000000" stroke="none" 
	d="
M33.683907,124.100143 
	C33.196411,125.483727 32.443325,127.072906 31.409887,128.843704 
	C31.892464,127.452126 32.655388,125.878937 33.683907,124.100143 
z"/>
<path fill="#406146" opacity="1.000000" stroke="none" 
	d="
M169.407532,309.876404 
	C170.210556,309.712860 171.410400,309.594269 172.802185,309.656372 
	C171.930878,309.865204 170.867615,309.893311 169.407532,309.876404 
z"/>
<path fill="#3E6145" opacity="1.000000" stroke="none" 
	d="
M37.675671,121.034187 
	C36.838291,121.871574 35.707146,122.852325 34.232525,123.891663 
	C35.053333,123.026024 36.217617,122.101784 37.675671,121.034187 
z"/>
<path fill="#406248" opacity="1.000000" stroke="none" 
	d="
M79.131653,91.318085 
	C79.737350,92.430779 80.344841,93.895058 80.976799,95.721329 
	C80.378662,94.612106 79.756058,93.140900 79.131653,91.318085 
z"/>
<path fill="#3B5F41" opacity="1.000000" stroke="none" 
	d="
M307.847351,68.598877 
	C307.701843,67.768631 307.598877,66.540726 307.656433,65.161102 
	C307.841309,66.073326 307.865601,67.137276 307.847351,68.598877 
z"/>
<path fill="#405F45" opacity="1.000000" stroke="none" 
	d="
M27.023020,158.659088 
	C26.402603,157.924042 25.746805,156.847733 25.029129,155.450562 
	C25.640717,156.192413 26.314178,157.255127 27.023020,158.659088 
z"/>
<path fill="#3A5D42" opacity="1.000000" stroke="none" 
	d="
M223.017258,85.016891 
	C221.860626,85.623657 220.703979,86.230423 219.208496,86.882751 
	C219.667496,86.302834 220.465317,85.677353 221.857025,85.019310 
	C222.639709,84.996788 222.828491,85.006844 223.017258,85.016891 
z"/>
<path fill="#3F5F44" opacity="1.000000" stroke="none" 
	d="
M18.677574,18.019314 
	C18.134871,18.824041 17.312052,19.775089 16.181774,20.844395 
	C16.715363,20.030312 17.556412,19.097971 18.677574,18.019314 
z"/>
<path fill="#406145" opacity="1.000000" stroke="none" 
	d="
M157.426849,268.907166 
	C158.824127,268.586426 160.627457,268.311737 162.833405,268.040955 
	C161.434982,268.347626 159.633942,268.650421 157.426849,268.907166 
z"/>
<path fill="#406248" opacity="1.000000" stroke="none" 
	d="
M222.270111,112.749115 
	C222.819427,111.972862 223.662048,111.105591 224.802246,110.130280 
	C224.254349,110.900856 223.408905,111.779472 222.270111,112.749115 
z"/>
<path fill="#405F45" opacity="1.000000" stroke="none" 
	d="
M19.102386,148.638367 
	C18.515102,147.832275 17.833256,146.704346 17.097828,145.234772 
	C17.698772,146.034271 18.353298,147.175400 19.102386,148.638367 
z"/>
<path fill="#406248" opacity="1.000000" stroke="none" 
	d="
M225.318512,109.949326 
	C225.582260,109.215729 226.136581,108.325882 226.938446,107.233788 
	C226.660339,107.952057 226.134720,108.872574 225.318512,109.949326 
z"/>
<path fill="#406146" opacity="1.000000" stroke="none" 
	d="
M13.687321,24.058601 
	C13.430228,24.787603 12.894051,25.681742 12.124324,26.792629 
	C12.396596,26.080832 12.902416,25.152285 13.687321,24.058601 
z"/>
<path fill="#406248" opacity="1.000000" stroke="none" 
	d="
M301.324066,293.967377 
	C301.575134,293.227814 302.110504,292.321472 302.888550,291.203217 
	C302.623596,291.927704 302.115967,292.864166 301.324066,293.967377 
z"/>
<path fill="#406145" opacity="1.000000" stroke="none" 
	d="
M227.649139,80.894417 
	C227.139206,81.456886 226.314896,82.102509 225.188293,82.858887 
	C225.702255,82.305618 226.518509,81.641594 227.649139,80.894417 
z"/>
<path fill="#3E6345" opacity="1.000000" stroke="none" 
	d="
M291.615112,153.833984 
	C291.132385,154.500916 290.317993,155.126877 289.210724,155.864471 
	C289.706390,155.248398 290.494904,154.520706 291.615112,153.833984 
z"/>
<path fill="#406248" opacity="1.000000" stroke="none" 
	d="
M299.328217,296.966064 
	C299.578308,296.221466 300.115265,295.316956 300.895630,294.201538 
	C300.631042,294.929108 300.123047,295.867615 299.328217,296.966064 
z"/>
<path fill="#3D6042" opacity="1.000000" stroke="none" 
	d="
M258.709900,155.080490 
	C258.994781,154.982132 258.995422,155.414078 258.995300,155.630051 
	C258.209259,156.194077 257.423309,156.542145 256.310181,156.875519 
	C256.797028,156.300186 257.611023,155.739517 258.709900,155.080490 
z"/>
<path fill="#3F5F44" opacity="1.000000" stroke="none" 
	d="
M15.674669,21.040852 
	C15.422911,21.774370 14.889362,22.674372 14.115226,23.785717 
	C14.380718,23.067154 14.886799,22.137245 15.674669,21.040852 
z"/>
<path fill="#406145" opacity="1.000000" stroke="none" 
	d="
M144.064850,264.309998 
	C144.800858,264.562195 145.693542,265.097534 146.798492,265.868408 
	C146.081024,265.600372 145.151276,265.096741 144.064850,264.309998 
z"/>
<path fill="#406145" opacity="1.000000" stroke="none" 
	d="
M223.244659,84.833389 
	C222.828491,85.006844 222.639709,84.996788 222.167725,84.972900 
	C222.705490,84.311188 223.526459,83.663307 224.667908,82.943344 
	C224.482956,83.464142 223.977509,84.057014 223.244659,84.833389 
z"/>
<path fill="#3C6042" opacity="1.000000" stroke="none" 
	d="
M7.135447,84.336090 
	C7.247976,84.584450 7.323424,85.163528 7.284752,85.868378 
	C7.146543,85.551704 7.122454,85.109253 7.135447,84.336090 
z"/>
<path fill="#406145" opacity="1.000000" stroke="none" 
	d="
M180.275452,259.865295 
	C180.548462,259.589661 181.110886,259.320831 181.867599,259.070251 
	C181.562866,259.349701 181.063858,259.610901 180.275452,259.865295 
z"/>
<path fill="#3C5F43" opacity="1.000000" stroke="none" 
	d="
M218.322021,155.879822 
	C218.244705,155.470688 218.395401,154.880661 218.680756,154.153198 
	C218.726959,154.576828 218.638504,155.137894 218.322021,155.879822 
z"/>
<path fill="#405F45" opacity="1.000000" stroke="none" 
	d="
M23.110630,153.633194 
	C22.617672,153.413010 22.033173,152.867188 21.247475,152.102844 
	C21.703882,152.358734 22.361486,152.833145 23.110630,153.633194 
z"/>
<path fill="#3A5D42" opacity="1.000000" stroke="none" 
	d="
M144.712494,87.166473 
	C144.443909,87.446823 143.882278,87.702805 143.128357,87.939690 
	C143.430527,87.661095 143.924988,87.401596 144.712494,87.166473 
z"/>
<path fill="#406146" opacity="1.000000" stroke="none" 
	d="
M153.735580,299.056213 
	C153.437592,299.483307 152.867599,300.049988 152.049438,300.789795 
	C152.355392,300.373840 152.909470,299.784821 153.735580,299.056213 
z"/>
<path fill="#406248" opacity="1.000000" stroke="none" 
	d="
M217.380508,116.023872 
	C217.643951,115.749634 218.209305,115.421997 218.980682,115.059921 
	C218.685272,115.340485 218.183838,115.655472 217.380508,116.023872 
z"/>
<path fill="#406248" opacity="1.000000" stroke="none" 
	d="
M297.281250,299.000732 
	C297.559479,298.571411 298.089264,297.972504 298.847046,297.177856 
	C298.560944,297.598419 298.046875,298.214783 297.281250,299.000732 
z"/>
<path fill="#3E6043" opacity="1.000000" stroke="none" 
	d="
M16.178272,143.648285 
	C15.791861,143.168762 15.489126,142.348221 15.115534,141.205322 
	C15.450434,141.691055 15.856192,142.499146 16.178272,143.648285 
z"/>
<path fill="#3C5D42" opacity="1.000000" stroke="none" 
	d="
M275.958893,120.739212 
	C275.518188,120.520584 274.941711,120.044395 274.181213,119.355499 
	C274.605835,119.589081 275.214508,120.035370 275.958893,120.739212 
z"/>
<path fill="#3E6345" opacity="1.000000" stroke="none" 
	d="
M130.044922,258.257660 
	C130.375656,258.234009 130.904160,258.435730 131.692703,258.749451 
	C131.382721,258.735352 130.812714,258.609192 130.044922,258.257660 
z"/>
<path fill="#3E6043" opacity="1.000000" stroke="none" 
	d="
M303.279114,290.926086 
	C303.271729,290.563416 303.527618,290.025696 303.921112,289.224121 
	C303.886566,289.557220 303.714478,290.154175 303.279114,290.926086 
z"/>
<path fill="#406146" opacity="1.000000" stroke="none" 
	d="
M156.704193,296.262665 
	C156.731644,296.629669 156.464706,297.089142 156.044281,297.765717 
	C156.063782,297.440247 156.236786,296.897705 156.704193,296.262665 
z"/>
<path fill="#3D6042" opacity="1.000000" stroke="none" 
	d="
M202.259857,202.915955 
	C202.224197,202.580383 202.425323,202.066940 202.738800,201.301682 
	C202.732986,201.612610 202.614822,202.175369 202.259857,202.915955 
z"/>
<path fill="#3E6345" opacity="1.000000" stroke="none" 
	d="
M287.751617,159.054657 
	C287.772339,159.380081 287.573578,159.905075 287.265259,160.688889 
	C287.281158,160.383209 287.406647,159.818710 287.751617,159.054657 
z"/>
<path fill="#406146" opacity="1.000000" stroke="none" 
	d="
M155.670593,297.842896 
	C155.472824,298.182434 154.958435,298.461700 154.178955,298.867004 
	C154.393906,298.589569 154.873932,298.186096 155.670593,297.842896 
z"/>
<path fill="#3E6345" opacity="1.000000" stroke="none" 
	d="
M288.746155,156.099457 
	C288.770203,156.435806 288.557068,156.954834 288.222351,157.727081 
	C288.236816,157.414230 288.372894,156.848190 288.746155,156.099457 
z"/>
<path fill="#405F45" opacity="1.000000" stroke="none" 
	d="
M21.150745,151.668091 
	C20.821100,151.455307 20.549099,150.921646 20.153984,150.114426 
	C20.423376,150.342972 20.815882,150.845093 21.150745,151.668091 
z"/>
<path fill="#3E6043" opacity="1.000000" stroke="none" 
	d="
M298.216980,120.291588 
	C298.361725,120.283440 298.548706,120.511688 298.870972,120.916145 
	C298.694672,120.989471 298.445648,120.801346 298.216980,120.291588 
z"/>
<path fill="#3E6145" opacity="1.000000" stroke="none" 
	d="
M30.737389,130.944550 
	C30.937113,131.035019 30.939856,131.261093 30.940708,131.826355 
	C30.726509,131.941360 30.491478,131.732712 30.319269,131.481079 
	C30.280497,131.424408 30.460905,131.217758 30.737389,130.944550 
z"/>
<path fill="#406248" opacity="1.000000" stroke="none" 
	d="
M230.235947,103.057129 
	C230.213821,102.938705 230.401077,102.678383 230.732971,102.225662 
	C230.734634,102.328064 230.590546,102.622047 230.235947,103.057129 
z"/>
<path fill="#406248" opacity="1.000000" stroke="none" 
	d="
M228.226654,106.050995 
	C228.209351,105.938606 228.393738,105.684959 228.715988,105.240814 
	C228.862946,105.412285 228.721100,105.698753 228.226654,106.050995 
z"/>
<path fill="#3C5F43" opacity="1.000000" stroke="none" 
	d="
M7.129901,121.258278 
	C7.165187,121.257973 7.168868,121.487122 7.163940,121.830963 
	C7.162045,121.945572 7.105006,121.487656 7.129901,121.258278 
z"/>
<path fill="#3E6043" opacity="1.000000" stroke="none" 
	d="
M304.210663,288.980682 
	C304.183014,288.851837 304.375824,288.621368 304.717163,288.221436 
	C304.875458,288.409027 304.730591,288.684692 304.210663,288.980682 
z"/>
<path fill="#406248" opacity="1.000000" stroke="none" 
	d="
M290.285919,304.800446 
	C290.272705,304.648987 290.501923,304.456970 290.909241,304.127869 
	C290.993011,304.311523 290.806671,304.567871 290.285919,304.800446 
z"/>
<path fill="#405F45" opacity="1.000000" stroke="none" 
	d="
M287.247345,306.743958 
	C287.263092,306.622070 287.514465,306.443329 287.961853,306.141541 
	C287.974518,306.281372 287.749542,306.504211 287.247345,306.743958 
z"/>
<path fill="#3C6042" opacity="1.000000" stroke="none" 
	d="
M20.259296,114.027710 
	C20.255856,113.902214 20.487164,113.636208 20.895510,113.173576 
	C20.879711,113.280365 20.686878,113.583771 20.259296,114.027710 
z"/>
<path fill="#3C6042" opacity="1.000000" stroke="none" 
	d="
M18.820847,116.007751 
	C18.822411,115.845695 19.116711,115.623070 19.627281,115.227409 
	C19.600229,115.351974 19.356905,115.649574 18.820847,116.007751 
z"/>
<path fill="#406145" opacity="1.000000" stroke="none" 
	d="
M289.794342,13.744923 
	C289.651733,13.778773 289.474243,13.599889 289.173401,13.277130 
	C289.359222,13.133233 289.595703,13.266210 289.794342,13.744923 
z"/>
<path fill="#3E6043" opacity="1.000000" stroke="none" 
	d="
M16.994492,144.753815 
	C16.851202,144.776413 16.617882,144.534821 16.215942,144.106628 
	C16.333035,144.109879 16.618748,144.299744 16.994492,144.753815 
z"/>
<path fill="#3E6043" opacity="1.000000" stroke="none" 
	d="
M297.795837,144.031586 
	C297.824799,144.155731 297.641327,144.385529 297.312195,144.781219 
	C297.158539,144.602020 297.297485,144.332062 297.795837,144.031586 
z"/>
<path fill="#406145" opacity="1.000000" stroke="none" 
	d="
M199.314026,246.036621 
	C199.275452,245.840897 199.515396,245.598770 199.942200,245.181671 
	C199.950211,245.334534 199.771378,245.662369 199.314026,246.036621 
z"/>
<path fill="#3E6043" opacity="1.000000" stroke="none" 
	d="
M33.969284,286.768250 
	C33.836823,286.759338 33.601299,286.494751 33.191994,286.028992 
	C33.300880,286.056091 33.583549,286.284332 33.969284,286.768250 
z"/>
<path fill="#3B5F41" opacity="1.000000" stroke="none" 
	d="
M305.800171,32.721802 
	C305.657257,32.718822 305.470734,32.470516 305.155701,32.027195 
	C305.325531,31.981993 305.568665,32.196758 305.800171,32.721802 
z"/>
<path fill="#3E6345" opacity="1.000000" stroke="none" 
	d="
M292.632111,152.885941 
	C292.729706,153.143997 292.502106,153.385666 292.076294,153.781677 
	C292.034576,153.593307 292.177521,153.237793 292.632111,152.885941 
z"/>
<path fill="#405F45" opacity="1.000000" stroke="none" 
	d="
M27.695236,159.728943 
	C27.564987,159.728622 27.396975,159.506775 27.114689,159.108795 
	C27.266926,159.066864 27.485945,159.258453 27.695236,159.728943 
z"/>
<path fill="#3C6042" opacity="1.000000" stroke="none" 
	d="
M7.094398,58.261181 
	C7.137845,58.261627 7.137682,58.499592 7.121208,58.856552 
	C7.114855,58.975616 7.060747,58.498764 7.094398,58.261181 
z"/>
<path fill="#406145" opacity="1.000000" stroke="none" 
	d="
M178.226212,260.843933 
	C178.235306,260.687988 178.509964,260.492493 178.997833,260.162048 
	C178.971313,260.286194 178.731552,260.545288 178.226212,260.843933 
z"/>
<path fill="#3B5F41" opacity="1.000000" stroke="none" 
	d="
M307.148376,59.018291 
	C307.042511,59.017548 307.060455,58.501831 307.054443,57.729042 
	C307.111053,57.815758 307.191589,58.159538 307.148376,59.018291 
z"/>
<path fill="#406145" opacity="1.000000" stroke="none" 
	d="
M184.270004,258.824249 
	C184.277115,258.675323 184.543930,258.484131 185.019318,258.160858 
	C184.989487,258.271973 184.756775,258.523010 184.270004,258.824249 
z"/>
<path fill="#406248" opacity="1.000000" stroke="none" 
	d="
M86.982819,80.788177 
	C86.850685,80.818184 86.613983,80.623390 86.204803,80.276306 
	C86.396118,80.112648 86.678093,80.259094 86.982819,80.788177 
z"/>
<path fill="#3E6345" opacity="1.000000" stroke="none" 
	d="
M128.022751,257.204651 
	C128.147507,257.178497 128.380890,257.368042 128.785614,257.704254 
	C128.602539,257.859161 128.327347,257.715637 128.022751,257.204651 
z"/>
<path fill="#3C5D42" opacity="1.000000" stroke="none" 
	d="
M266.996307,147.004211 
	C266.992737,147.008362 266.980103,146.968399 266.994110,146.980789 
	C267.008118,146.993179 266.999878,147.000046 266.996307,147.004211 
z"/>
</svg>
